<?xml version="1.0" encoding="iso-8859-1"?>
<!-- Generator: Adobe Illustrator 16.0.0, SVG Export Plug-In . SVG Version: 6.00 Build 0)  -->
<!DOCTYPE svg PUBLIC "-//W3C//DTD SVG 1.1//EN" "http://www.w3.org/Graphics/SVG/1.1/DTD/svg11.dtd">
<svg version="1.1" id="Capa_1" xmlns="http://www.w3.org/2000/svg" xmlns:xlink="http://www.w3.org/1999/xlink" x="0px" y="0px"
	 width="977.7px" height="977.7px" viewBox="0 0 977.7 977.7" style="enable-background:new 0 0 977.7 977.7;" xml:space="preserve"
	>
<g>
	<path d="M488.799,977.7c26,0,47-21.101,47-47V928.1h74.9c7.7,0,13.399-7.1,11.7-14.6l-86.601-392.8v-71.3l46.2,44
		c6.7,6.399,15.4,9.699,24.2,9.699c6.1,0,12.1-1.6,17.6-4.8l62.601-36.6l-12.601-40l-13.1-26l-49.4,28.8l-109.2-104.2
		c-17.5-16.7-47.5-26.2-71.6-26.2c-19.4,0-39.5,7.3-57,16.5l-177.5,93c-9.1,4.801-15.7,13.4-17.899,23.4
		c-2.2,10.1,0.1,20.6,6.399,28.8l88.7,116c6.9,9,17.3,13.7,27.8,13.7c3.4,0,6.8-0.5,10.101-1.5l-72.601,329.3
		c-1.7,7.5,4.101,14.601,11.7,14.601h74.899v2.6c0,26,21.101,47,47,47c26,0,47-21.1,47-47v-2.6h22.7v2.6
		C441.699,956.7,462.799,977.7,488.799,977.7z M324.999,520.7l-59.8-74.3l59.8-31.301V520.7z"/>
	<path d="M389.199,126.8c12.2,1.4,26.2,2.2,41.2,2.2s29-0.8,41.199-2.2c22.4-2.5,38.5-7.1,42.5-12.5c0.601-0.8,1-1.7,1-2.6V84.4
		l-17.6,4.3l-58.5,14.3c-2.8,0.7-5.7,1-8.6,1c-2.9,0-5.801-0.3-8.601-1l-58.6-14.3l-17.5-4.3v27.2c0,0.9,0.3,1.7,1,2.6
		C350.699,119.7,366.799,124.2,389.199,126.8z"/>
	<path d="M580.399,36.2L435.099,0.6c-1.6-0.4-3.199-0.6-4.8-0.6c-1.6,0-3.2,0.2-4.7,0.6L279.6,36.2c-8.101,2-8.101,13.6,0,15.5
		l13.8,3.4v8.3v8.3v46.6c-5.101,3.2-8.5,8.8-8.5,15.3c0,9.9,8.1,18,18,18c9.899,0,18-8.1,18-18c0-6.4-3.4-12.1-8.5-15.3v-42V68v-8.3
		l18.3,4.5l7.5,1.8l7.5,1.8l33.399,8.2l46.5,11.4c1.601,0.4,3.101,0.6,4.7,0.6c1.601,0,3.2-0.2,4.8-0.6l46.5-11.4l33.5-8.2l7.5-1.8
		l7.5-1.8l50.301-12.4C588.499,49.8,588.499,38.2,580.399,36.2z"/>
	<path d="M734.899,396.6l-6.7-20.1l-40.101-119.8c-1.3-3.8-4.8-6.1-8.5-6.1c-1.1,0-2.3,0.2-3.399,0.7l-46.9,19.1
		c-4.899,2-7,7.7-4.6,12.4l52.399,103.4l14.4,28.399l11.8,37.4l32.601,103c1.199,3.9,4.8,6.3,8.6,6.3c1.1,0,2.3-0.2,3.4-0.7
		l46.899-19.1c4.8-2,7-7.6,4.7-12.3l-54.8-112.7L734.899,396.6z"/>
	<path d="M525.899,208.7c0-16.7,1.899-49.3-6.5-79.3c-1.301,0.9-2.801,1.7-4.5,2.5c-5.4,2.6-12.7,4.8-21.7,6.7
		c-2.5,0.5-5.101,1-7.8,1.4c-15.7,2.6-34.9,3.9-55.101,3.9s-39.3-1.4-55.1-3.9c-2.7-0.4-5.3-0.9-7.8-1.4c-9-1.8-16.301-4.1-21.7-6.7
		c-1.7-0.8-3.2-1.6-4.5-2.5c-8.4,30-6.5,62.6-6.5,79.3c0,36-32,48-32,48c11,55,88,16,88,16c-12.5-7.3-18.9-21.8-22-36.4
		c13.1,21.7,35.8,36,61.5,36s48.399-14.3,61.5-36c-3.101,14.7-9.5,29.1-22,36.4c0,0,77,39,88-16
		C557.899,256.7,525.899,244.7,525.899,208.7z"/>
</g>
<g>
</g>
<g>
</g>
<g>
</g>
<g>
</g>
<g>
</g>
<g>
</g>
<g>
</g>
<g>
</g>
<g>
</g>
<g>
</g>
<g>
</g>
<g>
</g>
<g>
</g>
<g>
</g>
<g>
</g>
</svg>
